<?xml version="1.0" standalone="no"?>
<!DOCTYPE svg PUBLIC "-//W3C//DTD SVG 20010904//EN"
 "http://www.w3.org/TR/2001/REC-SVG-20010904/DTD/svg10.dtd">
<svg version="1.0" xmlns="http://www.w3.org/2000/svg"
 width="400.000000pt" height="400.000000pt" viewBox="0 0 400.000000 400.000000"
 preserveAspectRatio="xMidYMid meet">

<g transform="translate(0.000000,400.000000) scale(0.100000,-0.100000)"
fill="#000000" stroke="none">
<path d="M1950 2758 c-120 -81 -114 -244 11 -308 74 -38 156 -21 215 47 l31
35 154 -26 c85 -15 177 -31 206 -37 l52 -10 7 -47 c9 -64 26 -102 64 -146 39
-44 92 -73 149 -82 l41 -7 0 41 c0 40 -2 42 -40 52 -85 23 -141 105 -126 185
9 48 68 112 116 126 99 30 195 -42 202 -151 2 -44 21 -60 69 -60 29 0 26 89
-5 155 -87 184 -319 199 -437 29 l-14 -22 -213 52 -213 52 -19 41 c-28 62 -80
96 -154 101 -51 3 -66 0 -96 -20z m135 -42 c19 -8 44 -30 55 -48 51 -83 -4
-178 -102 -178 -75 0 -125 57 -115 132 6 45 29 75 72 94 39 17 48 17 90 0z"/>
<path d="M2009 2666 c-32 -15 -46 -58 -31 -90 23 -50 108 -45 126 7 20 57 -41
110 -95 83z"/>
<path d="M1643 2281 l-222 -208 -58 -7 c-113 -13 -199 -81 -228 -180 -19 -62
-19 -90 0 -152 31 -107 126 -175 241 -175 79 0 137 24 185 78 73 81 89 199 41
292 l-22 42 166 212 c92 117 172 218 177 225 8 10 1 22 -24 47 l-34 34 -222
-208z m-202 -346 c92 -48 92 -202 0 -250 -69 -35 -151 -10 -182 58 -23 52 -24
75 -3 126 28 72 114 102 185 66z"/>
<path d="M1326 1878 c-32 -45 -6 -98 48 -98 39 0 66 26 66 62 0 55 -83 81
-114 36z"/>
<path d="M3096 2289 c-105 -25 -164 -133 -127 -232 15 -39 71 -89 141 -126 81
-42 110 -68 110 -97 0 -52 -93 -57 -156 -9 l-36 27 -44 -43 c-24 -24 -44 -49
-44 -55 0 -23 74 -74 129 -91 64 -18 130 -13 194 15 78 35 120 127 97 212 -16
59 -63 103 -170 160 -72 38 -85 49 -85 70 0 18 8 27 28 34 24 9 37 6 82 -19
l54 -29 42 42 c24 25 39 48 35 57 -10 26 -86 73 -137 84 -57 12 -60 12 -113 0z"/>
<path d="M773 2149 c-116 -20 -205 -84 -255 -186 -29 -59 -33 -77 -33 -148 0
-104 23 -169 82 -235 130 -145 357 -155 513 -22 l34 29 -33 42 c-18 22 -37 41
-42 41 -5 0 -31 -16 -57 -35 -62 -44 -128 -59 -198 -45 -110 23 -174 103 -174
219 0 78 19 119 77 171 82 72 193 73 294 3 45 -31 53 -33 67 -20 10 8 27 23
40 33 30 25 28 38 -15 72 -70 54 -117 73 -223 87 -14 1 -49 -1 -77 -6z"/>
<path d="M2540 1802 l0 -342 60 0 60 0 0 139 c0 77 4 142 8 145 4 2 42 -59 84
-137 l76 -142 66 -3 c36 -2 66 0 66 4 0 4 -34 71 -75 149 l-74 142 45 32 c54
37 75 83 75 157 0 75 -32 132 -91 161 -36 18 -70 24 -172 29 l-128 7 0 -341z
m250 188 c24 -24 26 -72 5 -94 -17 -16 -96 -32 -120 -22 -11 4 -15 22 -15 71
l0 65 55 0 c42 0 60 -5 75 -20z"/>
<path d="M1735 2058 c-3 -7 -4 -162 -3 -343 l3 -330 128 -3 127 -3 0 66 0 65
-70 0 -70 0 -2 278 -3 277 -53 3 c-36 2 -54 -1 -57 -10z"/>
<path d="M2145 2061 c-74 -18 -145 -77 -176 -146 -25 -54 -25 -156 0 -211 59
-130 223 -184 352 -116 37 19 64 43 86 75 102 152 34 339 -143 393 -51 15 -72
16 -119 5z m125 -128 c45 -26 64 -70 58 -138 -4 -51 -9 -62 -41 -92 -31 -28
-44 -33 -87 -33 -43 0 -55 5 -88 34 -36 34 -37 36 -37 104 0 61 3 74 25 97 14
15 34 31 45 35 34 14 95 11 125 -7z"/>
<path d="M2157 1882 c-40 -44 -6 -106 54 -100 47 4 71 46 49 86 -20 35 -77 43
-103 14z"/>
</g>
</svg>
